<svg width="213" height="164" viewBox="0 0 213 164" fill="none" xmlns="http://www.w3.org/2000/svg">
<path opacity="0.1" d="M123.755 27.6904C110.1 27.1336 97.0947 21.9385 84.676 16.2562C72.2574 10.5739 59.9569 4.2702 46.6289 1.26997C38.0565 -0.668866 28.2519 -0.942293 21.3464 4.47402C14.7024 9.68402 12.5503 18.6872 11.3962 27.0242C10.527 33.303 10.0164 39.9125 12.3963 45.7911C14.0505 49.8726 16.9832 53.3029 19.0129 57.2104C26.0746 70.8146 21.0826 87.588 13.4323 100.869C9.84549 107.098 5.67851 113.049 2.90826 119.673C0.138008 126.298 -1.14268 133.904 1.28155 140.67C3.68258 147.381 9.40664 152.412 15.6075 155.954C28.2013 163.15 43.0358 153.578 57.5115 154.747C89.5456 157.327 121.748 156.211 153.867 155.09C165.754 154.677 177.692 165.887 189.384 163.722C195.879 162.519 202.582 160.61 207.297 156.002C213.281 150.153 214.764 140.25 210.753 132.915C204.027 120.613 185.435 117.558 180.728 104.356C178.141 97.0883 180.797 88.9949 184.559 82.2562C192.627 67.7969 206.149 55.1125 206.86 38.5876C207.35 27.238 200.849 15.8709 190.798 10.4993C180.263 4.86925 165.653 5.57767 157.884 14.894C149.877 24.4913 135.809 28.185 123.755 27.6904Z" fill="#6C63FF"/>
<g clip-path="url(#clip0)">
<path fill-rule="evenodd" clip-rule="evenodd" d="M141.162 39C141.649 39 142.116 39.1935 142.461 39.5377C142.805 39.882 142.998 40.349 142.999 40.8359V131.164C142.999 132.178 142.176 133 141.163 133H85.7418C83.5058 133 81.3467 132.191 79.6615 130.721L77.4786 128.818C76.8837 131.216 74.7133 133 72.1332 133H54.5086C51.4716 133 49.001 130.529 49.001 127.492V97.5671C49.001 94.5303 51.4716 92.0595 54.5086 92.0595H72.1331C74.0191 92.0595 75.6865 93.0131 76.6796 94.4631L84.4821 86.6606L75.4627 53.0001C75.2002 52.0208 75.7814 51.0142 76.7609 50.7517L94.1636 46.0886V40.8383C94.1636 39.8245 94.9855 39.0024 95.9993 39.0024L141.162 39ZM72.1329 129.328C73.1452 129.328 73.9688 128.505 73.9688 127.492H73.969V97.5673C73.969 96.555 73.1454 95.7314 72.1331 95.7314H65.1567V116.88C65.1567 117.894 64.3345 118.716 63.3207 118.716C62.3069 118.716 61.4848 117.894 61.4848 116.88V95.7314H54.5084C53.4961 95.7314 52.6725 96.555 52.6725 97.5673V127.492C52.6725 128.505 53.4961 129.328 54.5084 129.328H72.1329ZM94.1636 49.8899L79.4845 53.8232L88.1072 86.0044C88.2487 86.1939 88.3545 86.4118 88.4149 86.6483L90.3138 94.0772H93.9985L86.8422 67.5777C86.715 67.1069 86.7805 66.605 87.0238 66.1825C87.2671 65.7599 87.6686 65.4518 88.1395 65.3255C90.7724 64.62 92.3405 61.9041 91.6349 59.2711C91.5088 58.8008 91.5749 58.2997 91.8183 57.878C92.0618 57.4563 92.4626 57.1488 92.9331 57.0227L94.1636 56.6929V49.8899ZM94.1636 80.6042V65.1124C93.3585 66.4023 92.2138 67.4829 90.815 68.2052L94.1636 80.6042ZM85.7414 129.328H120.539C121.957 129.328 123.11 128.175 123.11 126.759C123.11 125.341 121.957 124.188 120.539 124.188H106.488C105.475 124.188 104.652 123.366 104.652 122.352C104.652 121.338 105.475 120.516 106.488 120.516H126.802C128.219 120.516 129.372 119.363 129.372 117.946C129.372 116.529 128.219 115.376 126.802 115.376H106.488C105.475 115.376 104.652 114.554 104.652 113.54C104.652 112.526 105.475 111.704 106.488 111.704H130.73C132.147 111.704 133.3 110.551 133.3 109.134C133.3 107.716 132.147 106.563 130.73 106.563H106.488C105.475 106.563 104.652 105.741 104.652 104.727C104.652 103.713 105.475 102.891 106.488 102.891H124.984C126.401 102.891 127.554 101.738 127.554 100.321C127.554 98.9037 126.401 97.7507 124.984 97.7507L88.8884 97.7485C88.0495 97.7485 87.3175 97.1801 87.1097 96.3674L85.656 90.6796L77.6407 98.695V124.087L82.0743 127.954C83.0907 128.84 84.3929 129.328 85.7414 129.328ZM139.327 129.328H139.327V42.6719L97.8356 42.6739V94.0789H101.422V57.531C101.422 56.5172 102.244 55.6951 103.258 55.6951C105.983 55.6951 108.201 53.4777 108.201 50.7518C108.201 49.738 109.023 48.9159 110.037 48.9159H127.125C128.139 48.9159 128.961 49.738 128.961 50.7518C128.961 53.4775 131.178 55.6951 133.904 55.6951C134.918 55.6951 135.74 56.5172 135.74 57.531V64.8781C135.74 65.8919 134.918 66.714 133.904 66.714C132.89 66.714 132.068 65.8919 132.068 64.8781V59.1702C128.788 58.4554 126.2 55.8677 125.486 52.5878H111.675C110.961 55.8677 108.373 58.4554 105.093 59.1702V94.079H115.129C111.995 92.7351 109.794 89.6203 109.794 86C109.794 81.1551 113.736 77.2136 118.581 77.2136C123.425 77.2136 127.367 81.1551 127.367 86C127.367 89.6203 125.166 92.7351 122.032 94.079H124.983C128.425 94.079 131.225 96.879 131.225 100.321C131.225 101.237 131.026 102.107 130.67 102.891H130.73C131.189 102.891 131.637 102.943 132.068 103.037V82.1458C132.068 81.132 132.89 80.3099 133.904 80.3099C134.918 80.3099 135.74 81.132 135.74 82.1458V105.414C136.513 106.454 136.972 107.741 136.972 109.133C136.972 112.003 135.024 114.426 132.381 115.152C132.804 115.993 133.044 116.942 133.044 117.945C133.044 121.387 130.244 124.188 126.802 124.188H126.225C126.581 124.972 126.781 125.842 126.781 126.758C126.781 127.674 126.581 128.544 126.225 129.328H139.327ZM113.467 86.0002C113.467 88.8202 115.761 91.1146 118.581 91.1146C121.401 91.1146 123.695 88.82 123.695 86C123.695 83.18 121.401 80.8856 118.581 80.8856C115.761 80.8856 113.467 83.1802 113.467 86.0002ZM135.202 72.5863C134.86 72.2446 134.388 72.0483 133.904 72.0483C133.421 72.0483 132.947 72.2446 132.606 72.5863C132.264 72.9278 132.068 73.4014 132.068 73.8843C132.068 74.3671 132.264 74.8408 132.606 75.1821C132.947 75.5236 133.421 75.7202 133.904 75.7202C134.388 75.7202 134.86 75.5238 135.202 75.1821C135.545 74.8408 135.741 74.3671 135.741 73.8843C135.741 73.4014 135.545 72.9278 135.202 72.5863ZM64.6189 122.522C64.2776 122.181 63.8039 121.985 63.3211 121.985C62.8382 121.985 62.3646 122.181 62.0231 122.522C61.6816 122.864 61.4851 123.338 61.4851 123.821C61.4851 124.303 61.6814 124.777 62.0231 125.118C62.3646 125.46 62.8382 125.656 63.3211 125.656C63.8039 125.656 64.2776 125.46 64.6189 125.118C64.9604 124.777 65.157 124.303 65.157 123.821C65.157 123.338 64.9606 122.864 64.6189 122.522Z" fill="url(#paint0_linear)"/>
</g>
<defs>
<linearGradient id="paint0_linear" x1="49.001" y1="39" x2="153.512" y2="55.4439" gradientUnits="userSpaceOnUse">
<stop stop-color="#424DE7"/>
<stop offset="0.713542" stop-color="#A34889"/>
<stop offset="1" stop-color="#CE3087"/>
</linearGradient>
<clipPath id="clip0">
<rect x="49" y="39" width="94" height="94" fill="white"/>
</clipPath>
</defs>
</svg>
