<svg width="28" height="28" viewBox="0 0 28 28" fill="none" xmlns="http://www.w3.org/2000/svg">
<path d="M14 0C6.28053 0 0 6.28053 0 14C0 21.7195 6.28053 28 14 28C21.7195 28 28 21.7195 28 14C28 6.28053 21.7195 0 14 0Z" fill="#C6CBD7"/>
<path d="M14 6.58826C16.9406 6.58826 19.3333 8.88486 19.3333 11.7075C19.3333 14.5302 16.9406 16.8267 14 16.8267C11.0594 16.8267 8.66674 14.5301 8.66674 11.7075C8.66674 8.88482 11.0594 6.58826 14 6.58826ZM14 23.0588C10.9693 23.0588 8.28184 21.6501 6.58826 19.4859C8.4437 18.6289 11.0934 17.717 14 17.717C16.9068 17.717 19.5567 18.6291 21.4118 19.4858C19.7182 21.6501 17.0307 23.0588 14 23.0588Z" fill="white"/>
</svg>
