<svg width="30" height="30" viewBox="0 0 30 30" fill="none" xmlns="http://www.w3.org/2000/svg">
<path fill-rule="evenodd" clip-rule="evenodd" d="M13.5858 15L8.63604 10.0502C8.24552 9.65972 8.24552 9.02656 8.63604 8.63603C9.02656 8.24551 9.65973 8.24551 10.0503 8.63603L15 13.5858L19.9497 8.63603C20.3403 8.24551 20.9734 8.24551 21.364 8.63603C21.7545 9.02656 21.7545 9.65972 21.364 10.0502L16.4142 15L21.364 19.9497C21.7545 20.3403 21.7545 20.9734 21.364 21.364C20.9734 21.7545 20.3403 21.7545 19.9497 21.364L15 16.4142L10.0503 21.364C9.65973 21.7545 9.02656 21.7545 8.63604 21.364C8.24552 20.9734 8.24552 20.3403 8.63604 19.9497L13.5858 15Z" fill="#1C1F4A"/>
</svg>
