<svg width="20" height="20" viewBox="0 0 20 20" fill="none" xmlns="http://www.w3.org/2000/svg">
<g opacity="0.54">
<g clip-path="url(#clip0)">
<path d="M17.1626 18.9854H2.83695C1.85379 18.9854 0.940543 18.4764 0.423702 17.6399C-0.0932908 16.8036 -0.140304 15.7592 0.299453 14.8797L7.46226 2.61645C7.94292 1.65542 8.92516 1.04822 9.99975 1.04822C11.0743 1.04822 12.0566 1.65542 12.5372 2.61645L19.7 14.8797C20.1398 15.7592 20.0928 16.8036 19.5758 17.6399C19.059 18.4764 18.1459 18.9854 17.1626 18.9854Z" fill="black"/>
<path d="M17.1642 18.9855H9.99968V1.0483C11.0769 1.04159 12.0631 1.65123 12.5385 2.6179L19.6995 14.8807C20.1399 15.7596 20.0935 16.804 19.577 17.6403C19.0603 18.4768 18.1473 18.9858 17.1642 18.9855Z" fill="black"/>
<path d="M11.3795 15.8809C11.3795 16.6431 10.7616 17.2608 9.99963 17.2608C9.23765 17.2608 8.61992 16.6431 8.61992 15.8809C8.61992 15.119 9.23765 14.5012 9.99963 14.5012C10.7616 14.5012 11.3795 15.119 11.3795 15.8809Z" fill="white"/>
<path d="M11.3795 15.8809C11.3795 16.247 11.2342 16.5979 10.9755 16.8568C10.7166 17.1155 10.3657 17.2608 9.99968 17.2608V14.5012C10.3657 14.5011 10.7166 14.6464 10.9755 14.9053C11.2342 15.164 11.3795 15.5151 11.3795 15.8809Z" fill="white"/>
<path d="M9.99963 3.8078C10.7616 3.8078 11.3795 4.42553 11.3795 5.18767V11.7416C11.3795 12.5036 10.7616 13.1213 9.99963 13.1213C9.23765 13.1213 8.61992 12.5036 8.61992 11.7416V5.18767C8.61992 4.42553 9.23765 3.8078 9.99963 3.8078Z" fill="white"/>
<path d="M11.3795 5.18776V11.7417C11.3795 12.1077 11.2342 12.4586 10.9755 12.7173C10.7166 12.9762 10.3657 13.1215 9.99968 13.1214V3.80789C10.3657 3.80744 10.7171 3.9526 10.976 4.21147C11.2347 4.47035 11.38 4.82158 11.3795 5.18776Z" fill="white"/>
</g>
</g>
<defs>
<clipPath id="clip0">
<rect width="20" height="20" fill="white"/>
</clipPath>
</defs>
</svg>
