<svg width="34" height="34" viewBox="0 0 34 34" fill="none" xmlns="http://www.w3.org/2000/svg">
<path d="M17 0.000976562C7.61264 0.000976562 0 7.61194 0 17.001C0 26.3883 7.61264 33.9976 17 33.9976C26.389 33.9976 34 26.3883 34 17.001C34.0017 7.61194 26.389 0.000976562 17 0.000976562Z" fill="url(#paint0_linear)"/>
<path d="M19.4286 21.3216C19.4286 25.7852 15.8715 25.4962 15.8715 25.4962C14.3722 25.5149 13.3723 25.3442 10.9286 24.2819V21.0328C10.9286 21.0328 13.3979 22.2471 15.178 22.19C16.4876 22.1481 16.6125 20.4507 16.6125 20.4507V7.28571H19.4286C19.4286 7.28571 19.4286 16.8555 19.4286 21.3216Z" fill="white"/>
<defs>
<linearGradient id="paint0_linear" x1="0" y1="0.000976563" x2="37.8028" y2="5.94964" gradientUnits="userSpaceOnUse">
<stop stop-color="#424DE7"/>
<stop offset="0.713542" stop-color="#A34889"/>
<stop offset="1" stop-color="#CE3087"/>
</linearGradient>
</defs>
</svg>
