<svg width="31" height="24" viewBox="0 0 31 24" fill="none" xmlns="http://www.w3.org/2000/svg">
<path d="M18.1668 16.2858C20.0131 15.5075 21.4706 14.448 22.5386 13.107C23.6065 11.7663 24.1405 10.3062 24.1405 8.72674C24.1405 7.14723 23.6065 5.68705 22.5382 4.34627C21.4703 3.00549 20.013 1.94589 18.1665 1.16735C16.32 0.388937 14.3117 -0.00012207 12.1412 -0.00012207C9.97094 -0.00012207 7.9626 0.389175 6.11599 1.16735C4.26956 1.94583 2.81225 3.00543 1.74429 4.34627C0.676217 5.68729 0.14209 7.14722 0.14209 8.7268C0.14209 10.0789 0.546073 11.3521 1.35279 12.5452C2.15944 13.738 3.26739 14.7438 4.67629 15.5618C4.56274 15.8347 4.44627 16.0844 4.32693 16.312C4.20753 16.5392 4.06563 16.7578 3.90074 16.9681C3.73597 17.1786 3.60827 17.3432 3.51729 17.4621C3.42637 17.5814 3.27868 17.7494 3.07403 17.9649C2.86944 18.1809 2.7387 18.3229 2.68198 18.3909C2.68198 18.3795 2.65924 18.4052 2.61375 18.4677C2.5682 18.5302 2.54265 18.5585 2.53704 18.5531C2.5313 18.547 2.50856 18.5754 2.4688 18.6379C2.42904 18.7005 2.4091 18.7317 2.4091 18.7317L2.36642 18.8167C2.34958 18.851 2.338 18.8845 2.33239 18.9189C2.32666 18.9527 2.32379 18.9899 2.32379 19.0295C2.32379 19.0692 2.3294 19.106 2.34098 19.1402C2.36373 19.2877 2.42904 19.4068 2.53698 19.4982C2.64485 19.5889 2.76121 19.6342 2.88633 19.6342H2.9375C3.50553 19.5547 3.99423 19.4639 4.40323 19.3615C6.15312 18.9072 7.7327 18.1796 9.14166 17.1798C10.1642 17.3616 11.1642 17.4525 12.1414 17.4525C14.3118 17.4532 16.3204 17.0643 18.1668 16.2858Z" fill="#C6CBD7"/>
<path d="M29.4755 16.9163C30.2825 15.7289 30.6857 14.4539 30.6857 13.0902C30.6857 11.6924 30.2591 10.3849 29.4072 9.16916C28.5549 7.95357 27.3957 6.94209 25.93 6.13531C26.1911 6.98746 26.3218 7.85101 26.3218 8.72613C26.3218 10.2486 25.9416 11.6917 25.1798 13.0554C24.4185 14.4187 23.3277 15.6231 21.9074 16.6687C20.5892 17.6231 19.0893 18.3558 17.4074 18.8673C15.7261 19.3785 13.9704 19.6343 12.1409 19.6343C11.8001 19.6343 11.3001 19.6118 10.6411 19.5665C12.925 21.066 15.6067 21.8162 18.6859 21.8162C19.6633 21.8162 20.6631 21.7251 21.6859 21.5433C23.0948 22.5436 24.6744 23.2705 26.4242 23.7253C26.8333 23.8278 27.3219 23.9185 27.89 23.998C28.0263 24.0094 28.1516 23.9696 28.2651 23.8786C28.3787 23.7878 28.4527 23.6631 28.4866 23.5042C28.4813 23.436 28.4866 23.3985 28.5038 23.3931C28.5205 23.3877 28.5177 23.3506 28.4952 23.2825C28.4727 23.2143 28.4612 23.1802 28.4612 23.1802L28.4187 23.0952C28.4069 23.0727 28.3877 23.0412 28.3591 23.0016C28.3307 22.9622 28.3081 22.9334 28.2909 22.9164C28.2741 22.8995 28.2488 22.8709 28.2144 22.8314C28.1805 22.792 28.1577 22.7662 28.1462 22.7548C28.0894 22.6866 27.9588 22.5446 27.7543 22.3286C27.5496 22.1129 27.4022 21.9453 27.3113 21.8261C27.2203 21.7067 27.0925 21.5421 26.9278 21.3316C26.7631 21.1216 26.6209 20.9028 26.5016 20.6755C26.3823 20.4483 26.2658 20.1982 26.1522 19.9257C27.5612 19.1068 28.6689 18.1041 29.4755 16.9163Z" fill="#C6CBD7"/>
</svg>
