<svg width="34" height="33" viewBox="0 0 34 33" fill="none" xmlns="http://www.w3.org/2000/svg">
<path d="M18.0247 25.2858C19.871 24.5075 21.3285 23.448 22.3965 22.107C23.4644 20.7663 23.9984 19.3062 23.9984 17.7267C23.9984 16.1472 23.4644 14.687 22.3961 13.3463C21.3282 12.0055 19.8709 10.9459 18.0244 10.1674C16.178 9.38894 14.1696 8.99988 11.9991 8.99988C9.82885 8.99988 7.82051 9.38918 5.9739 10.1674C4.12747 10.9458 2.67016 12.0054 1.6022 13.3463C0.534127 14.6873 0 16.1472 0 17.7268C0 19.0789 0.403983 20.3521 1.2107 21.5452C2.01735 22.738 3.1253 23.7438 4.5342 24.5618C4.42065 24.8347 4.30418 25.0844 4.18484 25.312C4.06544 25.5392 3.92354 25.7578 3.75865 25.9681C3.59388 26.1786 3.46619 26.3432 3.3752 26.4621C3.28428 26.5814 3.13659 26.7494 2.93194 26.9649C2.72735 27.1809 2.59661 27.3229 2.53989 27.3909C2.53989 27.3795 2.51715 27.4052 2.47166 27.4677C2.42611 27.5302 2.40056 27.5585 2.39495 27.5531C2.38921 27.547 2.36647 27.5754 2.32671 27.6379C2.28695 27.7005 2.26701 27.7317 2.26701 27.7317L2.22433 27.8167C2.20749 27.851 2.19591 27.8845 2.1903 27.9189C2.18457 27.9527 2.1817 27.9899 2.1817 28.0295C2.1817 28.0692 2.18731 28.106 2.19889 28.1402C2.22164 28.2877 2.28695 28.4068 2.39489 28.4982C2.50276 28.5889 2.61912 28.6342 2.74424 28.6342H2.79541C3.36344 28.5547 3.85214 28.4639 4.26114 28.3615C6.01103 27.9072 7.59061 27.1796 8.99957 26.1798C10.0222 26.3616 11.0221 26.4525 11.9993 26.4525C14.1697 26.4532 16.1783 26.0643 18.0247 25.2858Z" fill="#C6CBD7"/>
<path d="M29.3334 25.9163C30.1404 24.7289 30.5436 23.4539 30.5436 22.0902C30.5436 20.6924 30.117 19.3849 29.2651 18.1692C28.4128 16.9536 27.2536 15.9421 25.7879 15.1353C26.0491 15.9875 26.1798 16.851 26.1798 17.7261C26.1798 19.2486 25.7996 20.6917 25.0378 22.0554C24.2765 23.4187 23.1856 24.6231 21.7653 25.6687C20.4472 26.6231 18.9472 27.3558 17.2654 27.8673C15.584 28.3785 13.8283 28.6343 11.9988 28.6343C11.6581 28.6343 11.158 28.6118 10.4991 28.5665C12.7829 30.066 15.4647 30.8162 18.5439 30.8162C19.5212 30.8162 20.5211 30.7251 21.5438 30.5433C22.9527 31.5436 24.5324 32.2705 26.2821 32.7253C26.6912 32.8278 27.1798 32.9185 27.748 32.998C27.8843 33.0094 28.0095 32.9696 28.1231 32.8786C28.2367 32.7878 28.3106 32.6631 28.3446 32.5042C28.3392 32.436 28.3446 32.3985 28.3617 32.3931C28.3785 32.3877 28.3756 32.3506 28.3531 32.2825C28.3306 32.2143 28.3192 32.1802 28.3192 32.1802L28.2767 32.0952C28.2649 32.0727 28.2456 32.0412 28.217 32.0016C28.1886 31.9622 28.166 31.9334 28.1488 31.9164C28.1321 31.8995 28.1067 31.8709 28.0724 31.8314C28.0385 31.792 28.0156 31.7662 28.0042 31.7548C27.9474 31.6866 27.8168 31.5446 27.6123 31.3286C27.4076 31.1129 27.2601 30.9453 27.1692 30.8261C27.0783 30.7067 26.9504 30.5421 26.7857 30.3316C26.621 30.1216 26.4788 29.9028 26.3595 29.6755C26.2402 29.4483 26.1238 29.1982 26.0101 28.9257C27.4192 28.1068 28.5268 27.1041 29.3334 25.9163Z" fill="#C6CBD7"/>
<circle cx="27.8579" cy="6" r="6" fill="#B93B88"/>
</svg>
