<svg width="10" height="10" viewBox="0 0 10 10" fill="none" xmlns="http://www.w3.org/2000/svg">
<path d="M8.33334 2.01152V1.1341C8.58121 0.98959 8.75 0.723809 8.75 0.41666V0.20834C8.75 0.0931836 8.65682 0 8.54166 0H1.45834C1.34318 0 1.25 0.0931836 1.25 0.20834V0.41668C1.25 0.723809 1.41879 0.98959 1.66666 1.13412V2.01152C1.66666 2.83713 2.01863 3.62732 2.63225 4.17949L3.54391 5L2.63225 5.82051C2.01863 6.37268 1.66666 7.16287 1.66666 7.98848V8.86588C1.41879 9.01041 1.25 9.27619 1.25 9.58334V9.79168C1.25 9.90682 1.34318 10 1.45834 10H8.54168C8.65684 10 8.75002 9.90682 8.75002 9.79166V9.58332C8.75002 9.27619 8.58123 9.01041 8.33336 8.86588V7.98848C8.33336 7.16287 7.98139 6.37268 7.36777 5.82051L6.45609 5L7.36775 4.17949C7.98137 3.62732 8.33334 2.83711 8.33334 2.01152ZM6.81031 3.56018L5.55461 4.69035C5.46672 4.7693 5.41666 4.8818 5.41666 5C5.41666 5.1182 5.46672 5.23072 5.55461 5.30965L6.81031 6.43982C7.24854 6.83432 7.5 7.39889 7.5 7.98848V8.75H6.97906L5.16662 6.33342C5.08809 6.22844 4.91189 6.22844 4.83336 6.33342L3.02094 8.75H2.5V7.98848C2.5 7.39887 2.75146 6.8343 3.18971 6.4398L4.44541 5.30963C4.5333 5.23068 4.58336 5.11818 4.58336 4.99998C4.58336 4.88178 4.5333 4.76926 4.44541 4.69033L3.18971 3.56016C2.75146 3.16568 2.5 2.60111 2.5 2.01152V1.25H7.5V2.01152C7.5 2.60111 7.24854 3.16568 6.81031 3.56018Z" fill="url(#paint0_linear)"/>
<path d="M6.43591 2.91663H3.56381C3.48141 2.91663 3.40674 2.96526 3.37338 3.04053C3.34002 3.11602 3.35404 3.20391 3.40959 3.26495L4.86019 4.60325C4.89986 4.63926 4.94992 4.65715 4.99996 4.65715C5.04999 4.65715 5.10005 4.63924 5.13972 4.60325L6.59011 3.26495C6.64565 3.20391 6.6597 3.11602 6.62632 3.04053C6.59298 2.96526 6.51831 2.91663 6.43591 2.91663Z" fill="url(#paint1_linear)"/>
<defs>
<linearGradient id="paint0_linear" x1="1.25" y1="0" x2="9.67799" y2="0.994579" gradientUnits="userSpaceOnUse">
<stop stop-color="#424DE7"/>
<stop offset="0.713542" stop-color="#A34889"/>
<stop offset="1" stop-color="#CE3087"/>
</linearGradient>
<linearGradient id="paint1_linear" x1="3.3555" y1="2.91663" x2="6.79828" y2="3.94017" gradientUnits="userSpaceOnUse">
<stop stop-color="#424DE7"/>
<stop offset="0.713542" stop-color="#A34889"/>
<stop offset="1" stop-color="#CE3087"/>
</linearGradient>
</defs>
</svg>
