<svg width="22" height="22" viewBox="0 0 22 22" fill="none" xmlns="http://www.w3.org/2000/svg">
<g clip-path="url(#clip0)">
<path d="M21.5443 10.2858L1.11626 0.857424C0.790982 0.709713 0.402848 0.797711 0.176568 1.07742C-0.0512835 1.35713 -0.0591405 1.75469 0.157711 2.04225L6.8754 10.9992L0.157711 19.9561C-0.0591405 20.2437 -0.0512835 20.6428 0.174997 20.9209C0.327421 21.1111 0.555273 21.2132 0.786267 21.2132C0.897836 21.2132 1.0094 21.1896 1.11469 21.1409L21.5428 11.7126C21.8225 11.5837 22 11.3056 22 10.9992C22 10.6928 21.8225 10.4146 21.5443 10.2858Z" fill="url(#paint0_linear)"/>
</g>
<defs>
<linearGradient id="paint0_linear" x1="4.57764e-05" y1="0.786583" x2="24.3666" y2="4.91585" gradientUnits="userSpaceOnUse">
<stop stop-color="#424DE7"/>
<stop offset="0.713542" stop-color="#A34889"/>
<stop offset="1" stop-color="#CE3087"/>
</linearGradient>
<clipPath id="clip0">
<rect width="22" height="22" fill="white"/>
</clipPath>
</defs>
</svg>
