<svg width="28" height="28" viewBox="0 0 28 28" fill="none" xmlns="http://www.w3.org/2000/svg">
<path d="M14 0.000976562C6.26923 0.000976562 0 6.26883 0 14.001C0 21.7317 6.26923 27.9982 14 27.9982C21.7321 27.9982 28 21.7317 28 14.001C28.0014 6.26883 21.7321 0.000976562 14 0.000976562Z" fill="#C6CBD7"/>
<path d="M16 17.559C16 21.2349 13.0707 20.9969 13.0707 20.9969C11.836 21.0123 11.0125 20.8717 9.00003 19.9969V17.3212C9.00003 17.3212 11.0336 18.3212 12.4996 18.2742C13.5781 18.2396 13.6809 16.8418 13.6809 16.8418V6H16C16 6 16 13.881 16 17.559Z" fill="white"/>
</svg>
